<?xml version="1.0" standalone="no"?>
<!DOCTYPE svg PUBLIC "-//W3C//DTD SVG 20010904//EN"
 "http://www.w3.org/TR/2001/REC-SVG-20010904/DTD/svg10.dtd">
<svg version="1.0" xmlns="http://www.w3.org/2000/svg"
 width="1024.000000pt" height="1024.000000pt" viewBox="0 0 1024.000000 1024.000000"
 preserveAspectRatio="xMidYMid meet">

<g transform="translate(0.000000,1024.000000) scale(0.100000,-0.100000)"
fill="#000000" stroke="none">
<path d="M0 5120 l0 -5120 5120 0 5120 0 0 5120 0 5120 -5120 0 -5120 0 0
-5120z m5408 2239 c3 -23 -5 -29 -100 -73 -153 -72 -238 -128 -313 -207 -105
-112 -166 -271 -185 -483 -6 -65 -10 -664 -10 -1453 0 -738 -3 -1349 -6 -1357
-3 -9 -22 -26 -42 -38 -19 -12 -63 -46 -96 -76 -56 -50 -246 -191 -317 -236
-31 -19 -33 -34 -2 -21 10 5 21 8 24 7 4 -1 38 8 75 19 165 47 238 52 784 54
577 2 643 8 811 68 205 75 327 153 442 283 124 142 135 157 159 222 13 36 28
62 39 65 12 3 21 22 29 60 6 31 22 72 35 91 13 19 28 60 35 93 30 147 42 201
56 233 8 19 23 79 33 133 20 105 25 117 42 100 13 -13 30 -289 24 -390 -13
-214 -90 -709 -124 -794 -5 -13 -32 -72 -59 -130 -67 -142 -82 -199 -88 -354
-5 -109 -1 -158 20 -298 17 -113 33 -184 49 -217 22 -46 22 -48 4 -38 -11 6
-57 23 -101 38 -45 15 -151 56 -236 92 -85 35 -184 72 -220 82 -61 17 -325
100 -525 165 -101 33 -396 105 -495 120 -307 48 -517 64 -661 51 -377 -34
-647 -146 -1014 -419 -66 -49 -121 -88 -123 -86 -2 1 22 40 53 86 63 93 213
251 320 337 193 155 384 370 416 470 6 20 31 73 54 117 44 84 58 131 97 330
l23 120 0 1250 c0 1365 3 1293 -61 1496 -41 130 -82 194 -170 263 -74 58 -225
140 -308 166 -76 25 -91 44 -56 72 21 17 58 18 854 16 l831 -3 3 -26z m4777
-69 c3 -5 1 -10 -4 -10 -6 0 -11 5 -11 10 0 6 2 10 4 10 3 0 8 -4 11 -10z
m-7126 -291 c57 -20 71 -92 25 -128 -51 -40 -113 -15 -129 51 -6 22 -1 33 23
58 34 34 37 34 81 19z m3121 -111 c68 -78 175 -241 221 -336 63 -131 116 -307
135 -442 25 -191 13 -503 -26 -645 -10 -38 -24 -97 -30 -130 -39 -199 -274
-584 -471 -769 -167 -158 -333 -262 -538 -340 -121 -47 -177 -56 -243 -41 -46
10 -53 15 -53 36 0 26 29 44 120 75 28 9 97 40 155 67 308 149 504 302 632
492 15 22 50 74 78 115 29 41 60 97 70 124 11 27 28 58 39 70 11 12 27 50 36
86 9 36 29 94 45 130 15 36 31 90 34 121 4 31 14 78 22 105 22 68 30 298 15
420 -35 281 -89 455 -207 660 -47 82 -94 168 -104 191 l-19 43 30 0 c22 0 39
-9 59 -32z m-2425 -180 c2 -2 -13 -40 -35 -83 -22 -44 -47 -102 -56 -130 -9
-27 -25 -63 -34 -80 -10 -16 -23 -50 -29 -75 -46 -204 -51 -236 -57 -401 -8
-190 1 -292 41 -489 50 -245 171 -496 336 -694 l69 -81 0 -72 c0 -40 -3 -73
-6 -73 -31 0 -174 128 -229 205 -71 100 -161 256 -194 337 -44 105 -100 290
-111 368 -5 36 -14 92 -20 125 -5 33 -13 107 -16 165 -9 149 21 492 48 543 5
10 21 62 34 115 14 53 33 108 43 122 10 14 33 54 50 90 36 72 57 99 85 109 20
8 73 7 81 -1z m3135 -23 c17 -21 8 -47 -22 -65 -32 -18 -61 -6 -66 27 -6 43
60 72 88 38z m-1410 -85 c404 -5 415 -6 415 -25 0 -12 -17 -30 -42 -48 -52
-34 -167 -152 -205 -208 -53 -80 -52 -66 -55 -789 -2 -371 -3 -684 -3 -696 0
-26 -122 -167 -202 -234 -33 -27 -63 -50 -66 -50 -4 0 -6 363 -4 807 3 583 0
825 -8 868 -18 90 -55 148 -167 260 -57 56 -103 110 -103 119 0 11 4 14 13 9
6 -4 199 -10 427 -13z m-1579 -896 c17 -21 0 -49 -32 -49 -24 0 -36 23 -25 51
7 19 40 18 57 -2z m2173 -10 c12 -12 13 -20 5 -35 -13 -25 -52 -22 -57 4 -9
44 22 62 52 31z m-3081 -173 c62 -24 75 -80 29 -124 -15 -15 -38 -27 -51 -27
-28 0 -91 60 -91 87 0 27 47 68 82 72 4 1 18 -3 31 -8z m4092 -13 c24 -19 27
-26 22 -62 -14 -103 -142 -117 -171 -19 -9 29 8 60 47 83 41 26 68 25 102 -2z
m-3588 -980 c45 -42 37 -105 -18 -134 -29 -15 -35 -15 -65 0 -74 35 -81 97
-17 141 41 27 64 26 100 -7z m2833 -95 c0 -8 -19 -81 -67 -263 l-28 -105 -90
-53 c-155 -91 -361 -146 -665 -176 -250 -26 -281 -26 -333 -4 -123 53 -31 120
201 148 112 13 379 78 493 120 150 56 289 140 366 222 7 7 34 37 60 65 45 50
63 63 63 46z"/>
</g>
</svg>
